<?xml version="1.0" encoding="UTF-8" standalone="no"?><!DOCTYPE svg PUBLIC "-//W3C//DTD SVG 1.1//EN" "http://www.w3.org/Graphics/SVG/1.1/DTD/svg11.dtd"><svg width="100%" height="100%" viewBox="0 0 337 63" version="1.1" xmlns="http://www.w3.org/2000/svg" xmlns:xlink="http://www.w3.org/1999/xlink" xml:space="preserve" style="fill-rule:evenodd;clip-rule:evenodd;stroke-linejoin:round;stroke-miterlimit:1.41421;"><g><path d="M87.965,26.934l15.63,0c-0.289,-6.575 -2.192,-7.966 -7.376,-7.966c-5.695,0 -7.677,1.824 -8.254,7.966m21.482,22.138c-3.726,1.247 -9.212,2.06 -13.018,2.06c-10.734,0 -18.044,-4.541 -18.044,-19.816c0,-14.907 6.51,-19.513 17.323,-19.513c11.77,0 16.875,4.016 16.219,22.073l-24.04,0c0.078,7.966 3.149,9.566 9.645,9.566c2.638,0 7.533,-0.656 10.459,-1.522l1.456,7.152Z" style="fill:#824d3a;fill-rule:nonzero;"/><path d="M141.821,20.937c-2.913,-0.945 -7.087,-1.746 -10.813,-1.746c-4.462,0 -6.718,0.434 -6.718,4.305c0,2.559 1.6,3.438 7.663,4.015c8.989,0.958 12.939,3.74 12.939,11.18c0,9.645 -6.43,12.441 -15.931,12.441c-3.95,0 -9.789,-0.735 -13.294,-1.981l1.89,-7.166c2.704,0.945 7.31,1.759 11.036,1.759c4.974,0 7.31,-0.656 7.31,-4.527c0,-2.638 -1.457,-3.871 -7.966,-4.462c-8.188,-0.656 -12.571,-2.927 -12.571,-10.603c0,-9.646 6.508,-12.349 15.931,-12.349c3.87,0 8.778,0.8 12.506,2.047l-1.982,7.087Z" style="fill:#824d3a;fill-rule:nonzero;"/><path d="M159.143,50.096l-9.069,0l0,-35.078c4.542,-1.758 11.273,-3.215 17.192,-3.215c4.161,0 7.296,0.801 9.501,2.48c4.015,-1.456 8.976,-2.48 13.227,-2.48c10.446,0 14.607,4.16 14.607,17.545l0,20.748l-9.057,0l0,-19.803c0,-8.253 -1.469,-10.301 -7.452,-10.301c-1.838,0 -4.83,0.288 -7.243,1.024c0.656,2.191 1.023,4.973 1.023,8.332l0,20.748l-9.056,0l0,-19.803c0,-8.253 -1.456,-10.301 -7.452,-10.301c-1.982,0 -4.397,0.367 -6.221,0.878l0,29.226Z" style="fill:#824d3a;fill-rule:nonzero;"/><path d="M219.102,26.934l15.641,0c-0.301,-6.575 -2.191,-7.966 -7.389,-7.966c-5.695,0 -7.663,1.824 -8.252,7.966m21.481,22.138c-3.727,1.247 -9.199,2.06 -13.004,2.06c-10.735,0 -18.044,-4.541 -18.044,-19.816c0,-14.907 6.494,-19.513 17.308,-19.513c11.771,0 16.889,4.016 16.233,22.073l-24.053,0c0.079,7.966 3.149,9.566 9.658,9.566c2.624,0 7.519,-0.656 10.445,-1.522l1.457,7.152Z" style="fill:#824d3a;fill-rule:nonzero;"/><path d="M272.733,23.063c0,-2.193 -3.214,-3.583 -7.311,-3.583c-6.362,0 -8.409,2.56 -8.409,11.836c0,10.158 2.126,12.06 8.556,12.06c2.48,0 5.248,-0.446 7.164,-1.102l0,-19.211Zm9.056,25.352c-4.018,1.615 -10.893,2.718 -16.22,2.718c-12.284,0 -17.913,-4.398 -17.913,-19.672c0,-15.052 6.22,-19.658 16.154,-19.658c4.239,0 6.942,1.024 8.923,2.113l0,-13.031l9.056,9.252l0,38.278Z" style="fill:#824d3a;fill-rule:nonzero;"/><rect x="289.032" y="12.906" width="9.053" height="37.19" style="fill:#824d3a;fill-rule:nonzero;"/><path d="M327.626,33.652c-2.047,-0.433 -4.686,-0.655 -7.389,-0.655c-5.117,0 -6.942,0.59 -6.942,5.341c0,5.038 1.391,5.839 6.863,5.839c2.639,0 5.342,-0.498 7.468,-1.247l0,-9.278Zm8.687,14.555c-4.672,1.823 -11.614,2.925 -16.811,2.925c-11.757,0 -15.707,-2.716 -15.707,-12.441c0,-10.511 5.918,-12.19 14.617,-12.19c3.138,0 6.065,0.367 9.214,1.01c0,-6.495 -1.537,-8.096 -9.292,-8.096c-4.081,0 -8.175,0.722 -11.258,1.81l-1.666,-7.453c3.856,-1.011 9.486,-1.969 14.827,-1.969c11.037,0 16.076,3.359 16.076,14.475l0,21.929Z" style="fill:#824d3a;fill-rule:nonzero;"/><path d="M13.192,50.24l37.492,0l0,12.505l-37.492,0l0,-12.505Zm0,-24.999l37.492,0l0,12.507l-37.492,0l0,-12.507Zm0,-24.986l37.492,0l0,12.493l-37.492,0l0,-12.493Z" style="fill:#e9184f;"/><path d="M50.684,50.24l12.506,0l0,-12.493l-12.506,0l0,12.493Zm-49.997,-24.999l12.505,0l0,-12.493l-12.505,0l0,12.493Z" style="fill:#f78d29;"/></g></svg>