<svg aria-hidden="true" focusable="false" data-prefix="fad" data-icon="users-class" class="svg-inline--fa fa-users-class fa-w-20" role="img" xmlns="http://www.w3.org/2000/svg" viewBox="0 0 640 512"><g class="fa-group"><path class="fa-secondary" fill="currentColor" d="M608 217a95.26 95.26 0 0 0-64-25V64H96v128a95.28 95.28 0 0 0-64 25V49.59C32 22.25 53.53 0 80 0h480c26.47 0 48 22.25 48 49.59z" opacity="0.4"></path><path class="fa-primary" fill="currentColor" d="M576 384h-64a64 64 0 0 0-64 64v32a32 32 0 0 0 32 32h128a32 32 0 0 0 32-32v-32a64 64 0 0 0-64-64zm-32-32a64 64 0 1 0-64-64 64 64 0 0 0 64 64zm-192 32h-64a64 64 0 0 0-64 64v32a32 32 0 0 0 32 32h128a32 32 0 0 0 32-32v-32a64 64 0 0 0-64-64zm-224 0H64a64 64 0 0 0-64 64v32a32 32 0 0 0 32 32h128a32 32 0 0 0 32-32v-32a64 64 0 0 0-64-64zm192-32a64 64 0 1 0-64-64 64 64 0 0 0 64 64zm-224 0a64 64 0 1 0-64-64 64 64 0 0 0 64 64z"></path></g></svg>